<?xml version="1.0" standalone="no"?>
<!DOCTYPE svg PUBLIC "-//W3C//DTD SVG 20010904//EN"
 "http://www.w3.org/TR/2001/REC-SVG-20010904/DTD/svg10.dtd">
<svg version="1.0" xmlns="http://www.w3.org/2000/svg"
 width="351.000000pt" height="351.000000pt" viewBox="0 0 351.000000 351.000000"
 preserveAspectRatio="xMidYMid meet">
<metadata>
Created by potrace 1.14, written by Peter Selinger 2001-2017
</metadata>
<g transform="translate(0.000000,351.000000) scale(0.100000,-0.100000)"
fill="#000000" stroke="none">
<path d="M367 3354 c6 -17 5 -17 -10 -5 -13 10 -17 10 -17 1 0 -8 -10 -11 -30
-8 -16 3 -30 1 -30 -3 0 -4 -11 -6 -24 -5 -14 2 -27 -3 -30 -10 -3 -8 -10 -14
-16 -14 -6 0 -8 6 -5 13 4 6 -1 3 -10 -8 -9 -11 -23 -19 -32 -17 -9 2 -12 -1
-8 -8 4 -7 2 -16 -4 -20 -7 -4 -13 -15 -15 -24 -1 -10 -9 -22 -17 -27 -9 -6
-10 -9 -2 -9 16 0 -15 -70 -31 -70 -6 0 -4 -5 4 -10 8 -5 11 -10 5 -10 -6 0
-9 -37 -8 -92 1 -58 -3 -98 -10 -107 -9 -11 -9 -13 0 -8 8 5 12 -3 12 -25 1
-72 6 -118 14 -118 4 0 6 -13 5 -29 -1 -16 4 -36 10 -44 10 -11 10 -17 1 -22
-8 -6 -8 -9 0 -14 17 -11 21 -89 5 -102 -10 -8 -11 -15 -4 -24 8 -10 8 -15 -1
-21 -8 -5 -9 -3 -4 6 5 8 4 11 -3 7 -5 -4 -8 -17 -4 -29 3 -14 1 -19 -6 -14
-7 4 -9 -1 -7 -15 3 -13 -3 -28 -13 -36 -9 -8 -11 -12 -4 -8 13 7 12 -21 -2
-44 -7 -11 -6 -12 5 -6 12 8 12 6 1 -8 -21 -25 -18 -344 3 -359 6 -5 4 -8 -5
-8 -13 0 -13 -1 0 -11 11 -8 12 -12 3 -15 -10 -4 -10 -8 0 -19 7 -7 17 -10 22
-7 6 2 5 -1 -2 -8 -9 -10 -9 -19 3 -41 9 -19 11 -29 4 -29 -6 0 -4 -7 4 -16
14 -14 21 -42 17 -67 -1 -5 3 -6 9 -2 6 3 10 -3 10 -15 0 -12 7 -28 15 -37 8
-8 13 -19 10 -24 -4 -5 -1 -9 4 -9 6 0 11 -10 11 -22 0 -19 2 -20 10 -8 8 12
10 11 10 -6 0 -12 9 -31 20 -44 11 -13 20 -29 20 -37 0 -7 7 -16 16 -20 9 -3
13 -12 9 -21 -3 -9 -3 -13 1 -9 10 10 75 -65 69 -81 -2 -7 0 -10 5 -7 5 3 21
-5 35 -19 14 -15 31 -26 37 -26 6 0 5 -7 -3 -17 -11 -13 -11 -15 -1 -9 8 5 21
-1 36 -17 13 -14 33 -28 45 -32 12 -3 19 -11 16 -16 -4 -5 6 -14 20 -19 14 -5
23 -15 20 -20 -4 -6 -3 -10 2 -9 20 3 34 -2 28 -11 -3 -5 3 -10 14 -10 12 0
21 -4 21 -10 0 -5 7 -10 15 -10 8 0 15 -5 15 -11 0 -5 5 -7 12 -3 8 5 9 2 4
-11 -5 -15 -4 -16 9 -5 8 7 15 8 15 2 0 -5 13 -15 30 -22 16 -7 27 -16 24 -21
-3 -5 2 -6 10 -3 9 3 16 2 16 -4 0 -5 7 -13 16 -16 10 -4 13 -2 8 7 -4 6 2 3
13 -8 11 -11 30 -26 41 -34 12 -8 19 -18 16 -23 -3 -4 3 -5 12 -1 12 4 15 3
10 -5 -4 -7 -2 -12 6 -12 8 0 9 -3 3 -8 -12 -9 -13 -102 -1 -121 7 -10 5 -12
-5 -7 -8 4 -5 0 5 -8 11 -9 14 -16 8 -16 -16 0 -15 -27 1 -33 7 -3 8 -6 1 -6
-7 -1 -10 -14 -8 -32 3 -20 0 -28 -8 -23 -7 4 -8 3 -4 -5 4 -6 3 -18 -3 -25
-6 -7 -8 -24 -5 -39 2 -15 0 -27 -5 -27 -5 0 -8 -12 -5 -26 3 -19 1 -24 -8
-18 -10 6 -11 5 -1 -7 8 -9 12 -42 12 -80 -2 -114 0 -129 17 -129 8 0 13 -4
10 -9 -3 -5 1 -12 10 -15 10 -4 13 -2 8 7 -5 8 -2 8 9 -2 9 -7 15 -16 13 -20
-3 -4 5 -8 17 -8 12 -1 27 -9 33 -18 6 -8 21 -15 33 -15 11 0 21 -4 21 -10 0
-5 16 -10 35 -10 19 0 35 -4 35 -9 0 -5 14 -7 31 -4 24 3 29 1 24 -9 -3 -7 1
-4 9 6 9 11 16 16 16 10 0 -5 29 -9 64 -9 35 0 62 4 59 9 -3 5 6 7 21 4 14 -3
26 -1 26 5 0 6 3 8 6 5 8 -9 127 42 141 60 10 14 14 15 22 3 7 -11 9 -11 14 0
4 12 7 11 16 -1 7 -10 11 -11 11 -2 0 8 15 12 45 10 25 0 45 -5 45 -10 0 -5 5
-6 10 -3 6 3 22 -3 36 -14 15 -11 30 -18 35 -15 5 3 9 0 9 -5 0 -6 7 -11 16
-11 8 0 13 -4 10 -8 -2 -4 7 -9 22 -10 14 -1 30 -6 36 -12 6 -6 16 -5 29 1 14
8 18 8 13 0 -6 -9 12 -14 40 -10 4 0 11 -5 15 -13 6 -9 9 -9 9 -1 0 8 25 12
78 13 118 2 140 4 139 15 -1 6 4 9 11 7 7 -1 20 5 28 13 9 8 20 12 26 9 7 -4
8 -2 4 4 -4 7 -2 12 3 12 6 0 11 7 11 15 0 8 3 14 8 14 16 -3 32 1 30 9 -3 14
14 42 23 36 5 -3 9 0 9 6 0 6 5 8 10 5 6 -3 10 -1 10 5 0 6 5 8 10 5 6 -3 10
-1 10 5 0 7 7 10 15 7 8 -4 17 -1 21 5 4 7 9 6 15 -3 6 -10 9 -11 9 -1 0 6 8
12 18 12 10 0 24 -6 31 -12 9 -8 11 -8 8 -2 -4 7 0 14 7 17 8 3 17 1 20 -6 5
-9 7 -9 12 1 3 6 10 12 15 12 6 0 7 -6 3 -12 -6 -10 -5 -10 8 -1 8 7 18 10 21
6 4 -3 7 0 7 7 0 9 5 7 16 -6 8 -10 13 -14 10 -8 -7 13 21 27 35 18 5 -3 9 0
9 7 0 7 10 9 25 7 13 -3 23 -1 22 5 -1 5 4 12 12 15 9 3 11 0 7 -9 -4 -8 -1
-6 7 4 8 9 22 17 31 17 10 0 24 7 33 15 8 8 20 12 26 8 7 -4 6 1 -2 10 -12 15
-12 17 3 11 9 -3 16 -1 16 5 0 6 14 18 30 26 17 9 28 20 25 24 -5 9 24 26 39
22 5 -1 3 5 -4 14 -11 14 -11 16 0 13 8 -2 14 3 15 10 0 7 7 17 15 22 13 9 13
10 0 10 -13 0 -13 2 0 9 8 6 19 7 25 3 5 -3 4 2 -4 11 -11 14 -11 18 3 23 9 3
16 10 16 16 0 5 -5 6 -11 3 -13 -8 12 37 26 47 6 5 5 8 -3 8 -7 0 -10 5 -7 10
4 6 10 8 14 5 5 -2 7 9 5 26 -2 16 0 28 5 25 4 -3 7 8 5 25 -2 16 0 27 5 24 5
-3 13 0 17 6 4 8 3 9 -5 5 -8 -5 -11 3 -9 26 1 18 4 38 8 43 8 13 7 27 -4 44
-7 11 -5 13 6 9 11 -5 14 0 12 20 -1 15 3 33 9 41 10 12 9 13 -2 6 -11 -6 -13
-4 -8 8 3 9 2 19 -3 22 -6 4 -7 14 -2 23 4 9 7 32 6 50 -1 19 3 32 9 32 7 0 4
5 -5 11 -9 5 -15 16 -12 24 4 8 11 12 18 8 8 -5 8 -3 0 8 -22 27 -7 128 17
114 5 -3 6 1 3 10 -4 9 -3 15 2 14 5 -1 11 0 14 1 5 2 46 9 68 12 6 1 12 5 12
10 0 4 9 8 19 8 11 0 23 5 26 10 4 6 10 8 15 5 4 -3 11 2 14 11 3 8 10 12 16
9 5 -3 10 -1 10 5 0 6 5 8 10 5 6 -4 9 -1 8 7 -2 8 6 13 19 12 12 0 20 3 17 8
-7 11 22 39 30 30 4 -3 4 1 0 11 -3 10 -1 17 5 17 6 0 11 7 11 15 0 8 8 15 18
15 13 0 14 2 4 9 -11 7 -10 9 3 15 9 3 13 10 10 16 -3 5 -1 10 4 10 6 0 11 7
11 16 0 8 4 13 9 10 5 -4 7 3 4 14 -3 11 -1 20 5 20 5 0 9 8 8 18 0 10 5 16
13 14 12 -3 12 0 1 12 -7 9 -8 16 -3 16 5 0 7 14 5 31 -3 20 0 34 9 40 10 6
11 9 2 9 -7 0 -13 8 -13 18 0 10 6 24 13 31 7 9 7 11 1 8 -13 -8 -27 20 -18
34 3 5 1 9 -5 9 -6 0 -8 6 -5 13 3 8 -2 20 -11 27 -8 7 -15 18 -15 26 0 7 -9
16 -20 19 -11 4 -17 11 -14 17 4 7 2 8 -4 4 -17 -10 -51 15 -45 33 4 14 3 14
-7 1 -9 -11 -13 -12 -17 -2 -2 6 -9 10 -14 6 -5 -3 -9 3 -9 13 0 13 -2 15 -9
5 -6 -10 -14 -10 -32 -3 -30 12 -62 24 -71 26 -5 2 -11 4 -15 5 -5 1 -19 1
-32 0 -13 -1 -21 3 -17 8 7 12 -13 10 -33 -2 -10 -6 -12 -5 -7 2 4 7 1 12 -8
12 -18 0 -12 24 13 54 9 11 10 16 4 12 -19 -11 -16 14 4 36 9 10 11 18 5 18
-7 0 -6 9 3 26 7 15 11 33 8 42 -4 9 -2 13 4 9 6 -4 9 3 7 18 -1 15 4 29 14
35 10 5 12 10 6 10 -6 0 -11 11 -11 25 0 14 4 22 10 18 6 -3 7 -1 3 6 -4 6 -2
19 6 28 7 9 8 14 2 10 -7 -4 -15 0 -18 9 -3 8 -2 12 4 9 5 -3 9 3 9 12 1 10 2
34 4 53 2 19 0 45 -5 57 -4 14 -3 25 4 29 7 5 8 3 3 -6 -5 -9 -4 -11 4 -6 9 6
9 11 0 22 -6 8 -9 14 -6 14 3 0 1 14 -4 32 -6 23 -5 34 4 40 8 5 8 8 1 8 -7 0
-15 7 -18 16 -3 8 -2 13 2 10 5 -3 9 1 9 9 0 8 -4 12 -9 9 -4 -3 -8 2 -8 10 0
9 6 16 13 16 9 0 9 3 -1 9 -8 5 -15 20 -15 35 -1 14 -5 26 -10 26 -4 0 -6 3
-6 8 3 19 -2 33 -11 27 -5 -3 -10 0 -10 8 0 8 -13 20 -30 27 -16 7 -27 16 -24
21 3 5 2 9 -3 8 -26 -4 -44 2 -37 14 5 8 2 8 -9 -2 -12 -9 -17 -10 -17 -2 0 7
-4 10 -8 7 -5 -3 -20 1 -35 9 -14 7 -28 11 -31 7 -3 -3 -6 0 -6 6 0 6 -7 9
-17 5 -11 -4 -14 -3 -9 6 9 14 -16 11 -26 -4 -5 -6 -8 -5 -8 3 0 6 -9 12 -20
12 -11 0 -20 6 -20 13 0 8 -4 7 -10 -3 -5 -8 -10 -10 -10 -4 0 6 -17 12 -37
13 -21 1 -44 3 -50 3 -7 1 -13 4 -13 7 0 3 -16 7 -35 8 -25 1 -33 -2 -28 -10
4 -7 -1 -6 -11 2 -13 11 -50 14 -159 14 -152 -1 -168 -2 -179 -18 -5 -6 -8 -5
-8 3 0 7 -4 10 -10 7 -5 -3 -10 0 -10 7 0 8 -5 6 -11 -5 -9 -15 -13 -16 -27
-5 -12 10 -14 10 -8 1 4 -7 3 -13 -1 -13 -5 0 -15 6 -22 13 -11 10 -13 10 -7
0 7 -13 -1 -16 -39 -15 -11 0 -23 -5 -27 -12 -6 -8 -11 -7 -18 4 -8 13 -10 13
-10 -1 0 -13 -8 -15 -42 -12 -66 7 -72 8 -94 21 -12 6 -24 8 -28 5 -3 -3 -6
-2 -6 4 0 6 -9 9 -22 5 -13 -3 -19 -1 -15 5 4 6 -4 8 -21 6 -21 -4 -24 -2 -12
6 11 8 7 9 -20 6 -19 -2 -41 1 -49 8 -11 9 -15 9 -18 -1 -3 -6 -10 -9 -16 -5
-7 4 -15 8 -19 9 -5 1 -9 2 -10 4 -2 1 -23 3 -47 4 -23 2 -47 9 -52 17 -5 8
-9 9 -9 3 0 -8 -24 -11 -70 -11 -40 0 -67 4 -63 10 3 5 -4 4 -14 -2 -11 -6
-23 -7 -27 -4 -10 11 -36 12 -36 3 0 -5 -9 -7 -20 -5 -11 2 -20 -1 -20 -7 0
-7 -7 -3 -16 8 -8 10 -13 14 -10 7 8 -15 -33 -14 -53 1 -12 9 -13 8 -6 -3 6
-11 2 -13 -19 -9 -14 3 -26 1 -26 -3 0 -5 -10 -7 -22 -5 -13 2 -31 -1 -42 -6
-14 -8 -17 -7 -10 4 6 11 5 11 -8 0 -17 -14 -39 -13 -50 3 -5 6 -8 6 -8 -1 0
-8 -10 -8 -35 0 -19 6 -35 15 -35 19 0 5 -4 5 -10 2 -5 -3 -10 2 -10 12 0 15
-2 16 -11 3 -7 -11 -12 -12 -15 -3 -3 7 -12 9 -20 6 -8 -3 -14 1 -14 8 0 7 -3
9 -7 6 -3 -4 -13 -1 -21 6 -13 10 -14 9 -7 -3 8 -13 7 -13 -8 -1 -9 7 -17 10
-17 5 0 -4 -5 -3 -11 3 -6 6 -18 9 -27 6 -8 -4 -13 -2 -10 3 6 9 -1 10 -79 14
-24 1 -41 6 -38 10 7 11 -29 8 -37 -4 -6 -8 -8 -7 -8 1 0 11 -7 11 -45 3 -5
-1 -12 -1 -15 0 -22 8 -46 7 -52 -3 -6 -9 -8 -9 -8 0 0 15 -60 14 -60 -1 0 -7
-3 -8 -8 -1 -4 6 -16 10 -27 10 -11 0 -26 4 -33 9 -9 7 -11 4 -5 -10z"/>
</g>
</svg>
